<svg xmlns="http://www.w3.org/2000/svg" width="12.602" height="23.309" viewBox="0 0 12.602 23.309">
    <g id="prefix__logotype" transform="translate(-22.077)">
        <path id="prefix__Path_8252" d="M34.2 0h-3.018c-3.4 0-5.59 2.252-5.59 5.736v2.645h-3.04a.475.475 0 0 0-.475.476v3.832a.475.475 0 0 0 .475.475h3.039v9.67a.475.475 0 0 0 .475.475h3.965a.475.475 0 0 0 .475-.475v-9.67h3.553a.475.475 0 0 0 .475-.475V8.857a.476.476 0 0 0-.476-.476h-3.551V6.139c0-1.078.257-1.625 1.661-1.625H34.2a.475.475 0 0 0 .475-.475V.48A.475.475 0 0 0 34.2 0z" data-name="Path 8252" style="fill:#fff"/>
    </g>
</svg>
