<svg xmlns="http://www.w3.org/2000/svg" width="24.097" height="24.102" viewBox="0 0 24.097 24.102">
    <defs>
        <style>
            .prefix__cls-1{fill:#fff}
        </style>
    </defs>
    <g id="prefix__brands-and-logotypes" transform="translate(-.449)">
        <path id="prefix__Path_8256" d="M24.485 7.086a8.807 8.807 0 0 0-.56-2.924A6.174 6.174 0 0 0 20.4.636a8.829 8.829 0 0 0-2.924-.56C16.184.014 15.775 0 12.5 0S8.821.014 7.535.071a8.809 8.809 0 0 0-2.924.56 5.881 5.881 0 0 0-2.137 1.394 5.934 5.934 0 0 0-1.389 2.132 8.83 8.83 0 0 0-.56 2.924C.464 8.371.45 8.781.45 12.053s.013 3.682.07 4.967a8.806 8.806 0 0 0 .56 2.924 6.173 6.173 0 0 0 3.526 3.526 8.831 8.831 0 0 0 2.924.56c1.285.057 1.695.071 4.967.071s3.682-.014 4.967-.071a8.8 8.8 0 0 0 2.924-.56 6.165 6.165 0 0 0 3.527-3.526 8.836 8.836 0 0 0 .56-2.924c.056-1.285.071-1.695.071-4.967s-.005-3.682-.061-4.967zm-2.17 9.84a6.606 6.606 0 0 1-.414 2.236 4 4 0 0 1-2.288 2.288 6.63 6.63 0 0 1-2.236.414c-1.271.057-1.652.071-4.868.071s-3.6-.014-4.868-.071a6.6 6.6 0 0 1-2.241-.413 3.709 3.709 0 0 1-1.384-.9 3.747 3.747 0 0 1-.9-1.384 6.631 6.631 0 0 1-.416-2.236c-.057-1.271-.071-1.653-.071-4.868s.014-3.6.071-4.868a6.6 6.6 0 0 1 .414-2.236 3.663 3.663 0 0 1 .9-1.384 3.741 3.741 0 0 1 1.384-.9 6.634 6.634 0 0 1 2.245-.415c1.272-.06 1.657-.071 4.869-.071s3.6.014 4.868.071a6.606 6.606 0 0 1 2.236.414 3.706 3.706 0 0 1 1.384.9 3.746 3.746 0 0 1 .9 1.384 6.633 6.633 0 0 1 .414 2.236c.056 1.271.071 1.652.071 4.868s-.014 3.593-.07 4.864zm0 0" class="prefix__cls-1" data-name="Path 8256"/>
        <path id="prefix__Path_8257" d="M131.141 124.5a6.191 6.191 0 1 0 6.191 6.191 6.193 6.193 0 0 0-6.191-6.191zm0 10.208a4.016 4.016 0 1 1 4.016-4.016 4.017 4.017 0 0 1-4.016 4.016zm0 0" class="prefix__cls-1" data-name="Path 8257" transform="translate(-118.638 -118.638)"/>
        <path id="prefix__Path_8258" d="M365.34 90.047a1.445 1.445 0 1 1-1.446-1.445 1.446 1.446 0 0 1 1.446 1.445zm0 0" class="prefix__cls-1" data-name="Path 8258" transform="translate(-344.956 -84.43)"/>
    </g>
</svg>
